<svg width="1000" height="1000" xmlns="http://www.w3.org/2000/svg">
 <g>
  <title>Layer 1</title>
  <path id="svg_2" d="m2.50002,89.55868l0,0c0,-48.08118 39.24087,-87.05869 87.64693,-87.05869l0,0c23.2454,0 45.53875,9.17222 61.97572,25.49889c16.43699,16.32668 25.6712,38.47039 25.6712,61.5598l0,0c0,48.08118 -39.24087,87.05869 -87.64693,87.05869l0,0c-48.40605,0 -87.64693,-38.97751 -87.64693,-87.05869zm43.82346,0l0,0c0,24.04059 19.62045,43.52935 43.82346,43.52935c24.20303,0 43.82346,-19.48876 43.82346,-43.52935c0,-24.04059 -19.62044,-43.52935 -43.82346,-43.52935l0,0c-24.20302,0 -43.82346,19.48877 -43.82346,43.52935z" stroke-width="5" stroke="#000" fill="#fff"/>
 </g>

</svg>