M48
; DRILL file {KiCad 7.0.5-7.0.5~ubuntu22.04.1} date Mon 10 Jul 2023 04:54:31 PM CDT
; FORMAT={-:-/ absolute / inch / decimal}
; #@! TF.CreationDate,2023-07-10T16:54:31-05:00
; #@! TF.GenerationSoftware,Kicad,Pcbnew,7.0.5-7.0.5~ubuntu22.04.1
; #@! TF.FileFunction,Plated,1,2,PTH
FMAT,2
INCH
; #@! TA.AperFunction,Plated,PTH,ViaDrill
T1C0.0157
; #@! TA.AperFunction,Plated,PTH,ComponentDrill
T2C0.0236
; #@! TA.AperFunction,Plated,PTH,ComponentDrill
T3C0.0300
; #@! TA.AperFunction,Plated,PTH,ComponentDrill
T4C0.0315
; #@! TA.AperFunction,Plated,PTH,ComponentDrill
T5C0.0394
; #@! TA.AperFunction,Plated,PTH,ComponentDrill
T6C0.1063
%
G90
G05
T1
X2.0Y-3.4
X2.0Y-4.3
X2.1Y-4.2
X2.3Y-4.1
X2.5Y-3.9
X2.5Y-4.0
X2.6Y-2.7
X2.6Y-3.4
X2.7Y-4.2
X2.8Y-2.5
X2.8Y-3.1
X2.8227Y-3.4981
X2.8241Y-3.9964
X2.8516Y-3.0
X2.8516Y-3.2995
X2.9Y-2.9
X2.9Y-3.2
X2.9Y-3.9
X3.0Y-3.3
X3.0Y-3.4
X3.0Y-4.1
X3.1Y-3.5
X3.1Y-4.3
X3.2Y-2.5
X3.2Y-2.9
X3.3Y-2.6
X3.3Y-3.0
X3.3Y-3.7
X3.3Y-4.2
X3.6Y-2.9
X3.6Y-4.0
X3.7Y-2.5
X3.7Y-2.8
X3.7Y-3.2
X3.7Y-3.6
X3.8Y-3.3
X4.0Y-2.9
X4.1Y-2.7
X4.2Y-3.3
X4.2Y-3.8
T3
X3.0Y-2.3
X3.0Y-2.8
X3.0Y-3.1
X3.0Y-3.6
X3.1Y-2.3
X3.1Y-2.8
X3.1Y-3.1
X3.1Y-3.6
X3.2Y-2.3
X3.2Y-2.8
X3.2Y-3.1
X3.2Y-3.6
X3.3Y-2.3
X3.3Y-2.8
X3.3Y-3.1
X3.3Y-3.6
X3.4Y-2.3
X3.4Y-2.8
X3.4Y-3.1
X3.4Y-3.6
X3.4Y-3.9
X3.4Y-4.0
X3.4Y-4.1
X3.4Y-4.2
X3.4Y-4.3
X3.5Y-2.3
X3.5Y-2.8
X3.5Y-3.1
X3.5Y-3.6
X3.6Y-2.3
X3.6Y-2.8
X3.6Y-3.1
X3.6Y-3.6
X3.9Y-2.3
X3.9Y-2.4
X3.9Y-2.5
X3.9Y-2.6
X3.9Y-2.7
X3.9Y-2.8
X3.9Y-3.1
X3.9Y-3.2
X3.9Y-3.3
X3.9Y-3.4
X3.9Y-3.5
X3.9Y-3.6
T4
X1.9Y-2.5
X1.9Y-2.6
X1.9Y-2.7
X1.9Y-2.8
X1.9Y-2.9
X1.9Y-3.0
X1.9Y-3.1
X1.9Y-3.2
X1.9Y-3.3
X1.9Y-3.4
X1.9Y-3.5
X1.9Y-3.6
X1.9Y-3.7
X1.9Y-3.8
X1.9Y-3.9
X1.9Y-4.0
X2.7Y-2.9
X2.7Y-3.0
X2.7Y-3.1
X2.7Y-3.2
X2.7Y-3.3
X2.7Y-3.4
X2.7Y-3.5
X2.7Y-3.6
X2.7Y-3.7
X2.7Y-3.8
X2.7Y-3.9
X2.7Y-4.0
T5
X1.7Y-2.9
X1.7Y-3.0
X1.7Y-3.1
X1.7Y-3.2
X1.7Y-3.3
X1.7Y-3.4
X1.7Y-3.5
X1.7Y-3.8
X1.7Y-3.9
X1.7Y-4.0
X1.7041Y-2.6
X1.7041Y-2.7
X1.9Y-4.4
X2.0Y-4.4
X2.1Y-4.4
X2.2Y-4.4
X2.5Y-4.4
X2.6Y-4.4
X2.7Y-4.4
X2.8Y-4.4
X3.3Y-4.5
X3.4Y-4.5
X3.5Y-4.5
T6
X3.7638Y-3.9583
X3.7638Y-4.2417
T2
G00X4.0217Y-3.8343
M15
G01X3.9783Y-3.8343
M16
G05
G00X4.0217Y-4.3657
M15
G01X3.9783Y-4.3657
M16
G05
T5
G00X3.9075Y-4.0803
M15
G01X3.9075Y-4.1197
M16
G05
T0
M30
