%TF.GenerationSoftware,KiCad,Pcbnew,7.0.5-7.0.5~ubuntu22.04.1*%
%TF.CreationDate,2023-07-10T16:54:28-05:00*%
%TF.ProjectId,vango-pcb,76616e67-6f2d-4706-9362-2e6b69636164,rev?*%
%TF.SameCoordinates,Original*%
%TF.FileFunction,Copper,L1,Top*%
%TF.FilePolarity,Positive*%
%FSLAX46Y46*%
G04 Gerber Fmt 4.6, Leading zero omitted, Abs format (unit mm)*
G04 Created by KiCad (PCBNEW 7.0.5-7.0.5~ubuntu22.04.1) date 2023-07-10 16:54:28*
%MOMM*%
%LPD*%
G01*
G04 APERTURE LIST*
G04 Aperture macros list*
%AMRoundRect*
0 Rectangle with rounded corners*
0 $1 Rounding radius*
0 $2 $3 $4 $5 $6 $7 $8 $9 X,Y pos of 4 corners*
0 Add a 4 corners polygon primitive as box body*
4,1,4,$2,$3,$4,$5,$6,$7,$8,$9,$2,$3,0*
0 Add four circle primitives for the rounded corners*
1,1,$1+$1,$2,$3*
1,1,$1+$1,$4,$5*
1,1,$1+$1,$6,$7*
1,1,$1+$1,$8,$9*
0 Add four rect primitives between the rounded corners*
20,1,$1+$1,$2,$3,$4,$5,0*
20,1,$1+$1,$4,$5,$6,$7,0*
20,1,$1+$1,$6,$7,$8,$9,0*
20,1,$1+$1,$8,$9,$2,$3,0*%
G04 Aperture macros list end*
%TA.AperFunction,ComponentPad*%
%ADD10C,1.524000*%
%TD*%
%TA.AperFunction,ComponentPad*%
%ADD11R,1.524000X1.524000*%
%TD*%
%TA.AperFunction,ComponentPad*%
%ADD12RoundRect,0.381000X0.381000X-0.381000X0.381000X0.381000X-0.381000X0.381000X-0.381000X-0.381000X0*%
%TD*%
%TA.AperFunction,ComponentPad*%
%ADD13R,1.700000X1.700000*%
%TD*%
%TA.AperFunction,ComponentPad*%
%ADD14O,1.700000X1.700000*%
%TD*%
%TA.AperFunction,ComponentPad*%
%ADD15C,1.700000*%
%TD*%
%TA.AperFunction,ComponentPad*%
%ADD16R,1.600000X1.600000*%
%TD*%
%TA.AperFunction,ComponentPad*%
%ADD17C,1.600000*%
%TD*%
%TA.AperFunction,ComponentPad*%
%ADD18R,2.000000X0.900000*%
%TD*%
%TA.AperFunction,ComponentPad*%
%ADD19RoundRect,1.025000X-1.025000X1.025000X-1.025000X-1.025000X1.025000X-1.025000X1.025000X1.025000X0*%
%TD*%
%TA.AperFunction,ComponentPad*%
%ADD20C,4.100000*%
%TD*%
%TA.AperFunction,ComponentPad*%
%ADD21R,1.300000X2.300000*%
%TD*%
%TA.AperFunction,ComponentPad*%
%ADD22RoundRect,0.425000X0.425000X-0.425000X0.425000X0.425000X-0.425000X0.425000X-0.425000X-0.425000X0*%
%TD*%
%TA.AperFunction,ViaPad*%
%ADD23C,0.800000*%
%TD*%
%TA.AperFunction,Conductor*%
%ADD24C,0.250000*%
%TD*%
G04 APERTURE END LIST*
D10*
%TO.P,U2,1,EN*%
%TO.N,unconnected-(U2-EN-Pad1)*%
X86360000Y-109220000D03*
%TO.P,U2,2,VIN*%
%TO.N,Net-(SW1-B)*%
X86360000Y-106680000D03*
%TO.P,U2,3,GND*%
%TO.N,Net-(J1--)*%
X86360000Y-104140000D03*
%TO.P,U2,4,GND*%
%TO.N,GNDPWR*%
X86360000Y-101600000D03*
%TO.P,U2,5,VOUT*%
%TO.N,+5V*%
X86360000Y-99060000D03*
%TD*%
%TO.P,U3,1,VM*%
%TO.N,unconnected-(U3-VM-Pad1)*%
X76200000Y-71120000D03*
D11*
%TO.P,U3,2,GND*%
%TO.N,GND*%
X78740000Y-71120000D03*
D10*
%TO.P,U3,3,EN/IN1*%
%TO.N,/IO13*%
X81280000Y-71120000D03*
%TO.P,U3,4,PH/IN2*%
%TO.N,/IO12*%
X83820000Y-71120000D03*
D11*
%TO.P,U3,5,PMODE*%
%TO.N,GND*%
X86360000Y-71120000D03*
D10*
%TO.P,U3,6,~{SLEEP}*%
%TO.N,+3V3*%
X88900000Y-71120000D03*
%TO.P,U3,7,VREF*%
%TO.N,unconnected-(U3-VREF-Pad7)*%
X91440000Y-71120000D03*
%TO.P,U3,8,VIN*%
%TO.N,+5V*%
X76200000Y-58420000D03*
D12*
%TO.P,U3,9,GND*%
%TO.N,GNDPWR*%
X78740000Y-58420000D03*
D10*
%TO.P,U3,10,OUT1*%
%TO.N,Net-(U3-OUT1)*%
X81280000Y-58420000D03*
%TO.P,U3,11,OUT2*%
%TO.N,Net-(U3-OUT2)*%
X83820000Y-58420000D03*
%TO.P,U3,12,IMODE*%
%TO.N,unconnected-(U3-IMODE-Pad12)*%
X86360000Y-58420000D03*
%TO.P,U3,13,~{FAULT}*%
%TO.N,unconnected-(U3-~{FAULT}-Pad13)*%
X88900000Y-58420000D03*
%TO.P,U3,14,CS*%
%TO.N,unconnected-(U3-CS-Pad14)*%
X91440000Y-58420000D03*
%TD*%
D13*
%TO.P,J4,1,Pin_1*%
%TO.N,/A0*%
X43180000Y-73660000D03*
D14*
%TO.P,J4,2,Pin_2*%
%TO.N,/A1*%
X43180000Y-76200000D03*
%TO.P,J4,3,Pin_3*%
%TO.N,/A2*%
X43180000Y-78740000D03*
%TO.P,J4,4,Pin_4*%
%TO.N,/A3*%
X43180000Y-81280000D03*
%TO.P,J4,5,Pin_5*%
%TO.N,/A4*%
X43180000Y-83820000D03*
%TO.P,J4,6,Pin_6*%
%TO.N,/A5*%
X43180000Y-86360000D03*
%TO.P,J4,7,Pin_7*%
%TO.N,/A8*%
X43180000Y-88900000D03*
%TD*%
D10*
%TO.P,U5,1,M1*%
%TO.N,Net-(U3-OUT2)*%
X99060000Y-58420000D03*
D11*
%TO.P,U5,2,GND*%
%TO.N,GND*%
X99060000Y-60960000D03*
D10*
%TO.P,U5,3,C1*%
%TO.N,/IO33*%
X99060000Y-63500000D03*
%TO.P,U5,4,C2*%
%TO.N,/IO27*%
X99060000Y-66040000D03*
%TO.P,U5,5,VCC*%
%TO.N,+3V3*%
X99060000Y-68580000D03*
%TO.P,U5,6,M2*%
%TO.N,Net-(U3-OUT1)*%
X99060000Y-71120000D03*
%TD*%
%TO.P,U4,1,M1*%
%TO.N,Net-(U1-OUT2)*%
X99060000Y-78740000D03*
D11*
%TO.P,U4,2,GND*%
%TO.N,GND*%
X99060000Y-81280000D03*
D10*
%TO.P,U4,3,C1*%
%TO.N,/IO14*%
X99060000Y-83820000D03*
%TO.P,U4,4,C2*%
%TO.N,/IO16*%
X99060000Y-86360000D03*
%TO.P,U4,5,VCC*%
%TO.N,+3V3*%
X99060000Y-88900000D03*
%TO.P,U4,6,M2*%
%TO.N,Net-(U1-OUT1)*%
X99060000Y-91440000D03*
%TD*%
D15*
%TO.P,J5,1,Pin_1*%
%TO.N,/MISO*%
X43180000Y-101600000D03*
D14*
%TO.P,J5,2,Pin_2*%
%TO.N,/MOSI*%
X43180000Y-99060000D03*
%TO.P,J5,3,Pin_3*%
%TO.N,/SCK*%
X43180000Y-96520000D03*
%TD*%
D10*
%TO.P,U1,1,VM*%
%TO.N,unconnected-(U1-VM-Pad1)*%
X76200000Y-91440000D03*
D11*
%TO.P,U1,2,GND*%
%TO.N,GND*%
X78740000Y-91440000D03*
D10*
%TO.P,U1,3,EN/IN1*%
%TO.N,/IO17*%
X81280000Y-91440000D03*
%TO.P,U1,4,PH/IN2*%
%TO.N,/IO32*%
X83820000Y-91440000D03*
D11*
%TO.P,U1,5,PMODE*%
%TO.N,GND*%
X86360000Y-91440000D03*
D10*
%TO.P,U1,6,~{SLEEP}*%
%TO.N,+3V3*%
X88900000Y-91440000D03*
%TO.P,U1,7,VREF*%
%TO.N,unconnected-(U1-VREF-Pad7)*%
X91440000Y-91440000D03*
%TO.P,U1,8,VIN*%
%TO.N,+5V*%
X76200000Y-78740000D03*
D12*
%TO.P,U1,9,GND*%
%TO.N,GNDPWR*%
X78740000Y-78740000D03*
D10*
%TO.P,U1,10,OUT1*%
%TO.N,Net-(U1-OUT1)*%
X81280000Y-78740000D03*
%TO.P,U1,11,OUT2*%
%TO.N,Net-(U1-OUT2)*%
X83820000Y-78740000D03*
%TO.P,U1,12,IMODE*%
%TO.N,unconnected-(U1-IMODE-Pad12)*%
X86360000Y-78740000D03*
%TO.P,U1,13,~{FAULT}*%
%TO.N,unconnected-(U1-~{FAULT}-Pad13)*%
X88900000Y-78740000D03*
%TO.P,U1,14,CS*%
%TO.N,unconnected-(U1-CS-Pad14)*%
X91440000Y-78740000D03*
%TD*%
D16*
%TO.P,A1,1,~{RESET}*%
%TO.N,unconnected-(A1-~{RESET}-Pad1)*%
X48260000Y-63500000D03*
D17*
%TO.P,A1,2,3V3*%
%TO.N,+3V3*%
X48260000Y-66040000D03*
%TO.P,A1,3,NC*%
%TO.N,unconnected-(A1-NC-Pad3)*%
X48260000Y-68580000D03*
D16*
%TO.P,A1,4,GND*%
%TO.N,GND*%
X48260000Y-71120000D03*
D17*
%TO.P,A1,5,DAC2/A0*%
%TO.N,/A0*%
X48260000Y-73660000D03*
%TO.P,A1,6,DAC1/A1*%
%TO.N,/A1*%
X48260000Y-76200000D03*
%TO.P,A1,7,I34/A2*%
%TO.N,/A2*%
X48260000Y-78740000D03*
%TO.P,A1,8,I39/A3*%
%TO.N,/A3*%
X48260000Y-81280000D03*
%TO.P,A1,9,IO36/A4*%
%TO.N,/A4*%
X48260000Y-83820000D03*
%TO.P,A1,10,IO4/A5*%
%TO.N,/A5*%
X48260000Y-86360000D03*
%TO.P,A1,11,SCK/IO5*%
%TO.N,/SCK*%
X48260000Y-88900000D03*
%TO.P,A1,12,MOSI/IO18*%
%TO.N,/MOSI*%
X48260000Y-91440000D03*
%TO.P,A1,13,MISO/IO19*%
%TO.N,/MISO*%
X48260000Y-93980000D03*
%TO.P,A1,14,RX/IO16*%
%TO.N,/IO16*%
X48260000Y-96520000D03*
%TO.P,A1,15,TX/IO17*%
%TO.N,/IO17*%
X48260000Y-99060000D03*
%TO.P,A1,16,IO21*%
%TO.N,Net-(A1-IO21)*%
X48260000Y-101600000D03*
%TO.P,A1,17,SDA/IO23*%
%TO.N,/SDA*%
X68580000Y-101600000D03*
%TO.P,A1,18,SCL/IO22*%
%TO.N,/SCL*%
X68580000Y-99060000D03*
%TO.P,A1,19,A6/IO14*%
%TO.N,/IO14*%
X68580000Y-96520000D03*
%TO.P,A1,20,A7/IO32*%
%TO.N,/IO32*%
X68580000Y-93980000D03*
%TO.P,A1,21,A8/IO15*%
%TO.N,/A8*%
X68580000Y-91440000D03*
%TO.P,A1,22,A9/IO33*%
%TO.N,/IO33*%
X68580000Y-88900000D03*
%TO.P,A1,23,A10/IO27*%
%TO.N,/IO27*%
X68580000Y-86360000D03*
%TO.P,A1,24,A11/IO12*%
%TO.N,/IO12*%
X68580000Y-83820000D03*
%TO.P,A1,25,A12/IO13*%
%TO.N,/IO13*%
X68580000Y-81280000D03*
%TO.P,A1,26,USB*%
%TO.N,unconnected-(A1-USB-Pad26)*%
X68580000Y-78740000D03*
%TO.P,A1,27,EN*%
%TO.N,unconnected-(A1-EN-Pad27)*%
X68580000Y-76200000D03*
%TO.P,A1,28,VBAT*%
%TO.N,unconnected-(A1-VBAT-Pad28)*%
X68580000Y-73660000D03*
%TD*%
D18*
%TO.P,J1,*%
%TO.N,*%
X101600000Y-97390000D03*
X101600000Y-110890000D03*
D19*
%TO.P,J1,1,+*%
%TO.N,Net-(J1-+)*%
X95600000Y-100540000D03*
D20*
%TO.P,J1,2,-*%
%TO.N,Net-(J1--)*%
X95600000Y-107740000D03*
D21*
%TO.P,J1,3*%
%TO.N,N/C*%
X99250000Y-104140000D03*
%TD*%
D15*
%TO.P,J2,1,Pin_1*%
%TO.N,Net-(A1-IO21)*%
X48260000Y-111760000D03*
D14*
%TO.P,J2,2,Pin_2*%
%TO.N,+5V*%
X50800000Y-111760000D03*
D22*
%TO.P,J2,3,Pin_3*%
%TO.N,GNDPWR*%
X53340000Y-111760000D03*
D14*
%TO.P,J2,4,Pin_4*%
%TO.N,unconnected-(J2-Pin_4-Pad4)*%
X55880000Y-111760000D03*
%TD*%
D13*
%TO.P,J3,1,Pin_1*%
%TO.N,GND*%
X71120000Y-111760000D03*
D14*
%TO.P,J3,2,Pin_2*%
%TO.N,+3V3*%
X68580000Y-111760000D03*
%TO.P,J3,3,Pin_3*%
%TO.N,/SCL*%
X66040000Y-111760000D03*
%TO.P,J3,4,Pin_4*%
%TO.N,/SDA*%
X63500000Y-111760000D03*
%TD*%
D15*
%TO.P,SW1,1,A*%
%TO.N,unconnected-(SW1-A-Pad1)*%
X83820000Y-114300000D03*
D14*
%TO.P,SW1,2,B*%
%TO.N,Net-(SW1-B)*%
X86360000Y-114300000D03*
%TO.P,SW1,3,C*%
%TO.N,Net-(J1-+)*%
X88900000Y-114300000D03*
%TD*%
D15*
%TO.P,J6,1,Pin_1*%
%TO.N,+3V3*%
X43285242Y-66040000D03*
D13*
%TO.P,J6,2,Pin_2*%
%TO.N,GND*%
X43285242Y-68580000D03*
%TD*%
D23*
%TO.N,+3V3*%
X83820000Y-93980000D03*
X68580000Y-106680000D03*
X83820000Y-106680000D03*
X101600000Y-73660000D03*
X83820000Y-66040000D03*
X104140000Y-68580000D03*
X91440000Y-73660000D03*
%TO.N,/IO16*%
X50800000Y-86360000D03*
%TO.N,/IO17*%
X50800000Y-109220000D03*
X78740000Y-109220000D03*
%TO.N,/SDA*%
X63500000Y-101600000D03*
%TO.N,/SCL*%
X63500000Y-99060000D03*
%TO.N,/IO14*%
X106680000Y-96520000D03*
X106680000Y-83820000D03*
%TO.N,/IO33*%
X66040000Y-68580000D03*
X66040000Y-86360000D03*
%TO.N,/IO27*%
X96520000Y-83820000D03*
X76200000Y-83820000D03*
X76200000Y-86360000D03*
%TO.N,/IO12*%
X83820000Y-76200000D03*
X72429506Y-76199999D03*
X72429506Y-83807787D03*
%TO.N,/IO13*%
X73660000Y-73660000D03*
X73660000Y-81280000D03*
X81280000Y-73660000D03*
%TO.N,+5V*%
X73660000Y-99060000D03*
X71120000Y-63500000D03*
X53340000Y-106680000D03*
X71120000Y-78740000D03*
X76200000Y-104140000D03*
%TO.N,GNDPWR*%
X78740000Y-88900000D03*
X58420000Y-104140000D03*
X71695917Y-88851563D03*
X71732289Y-101508981D03*
%TO.N,Net-(U1-OUT1)*%
X93980000Y-91440000D03*
X93980000Y-81280000D03*
%TO.N,Net-(U3-OUT1)*%
X81280000Y-63500000D03*
X93980000Y-63500000D03*
X93980000Y-71120000D03*
%TO.N,Net-(J1-+)*%
X91440000Y-101600000D03*
%TD*%
D24*
%TO.N,+3V3*%
X48260000Y-66040000D02*
X83820000Y-66040000D01*
X86360000Y-93980000D02*
X88900000Y-91440000D01*
X91440000Y-73660000D02*
X101600000Y-73660000D01*
X104140000Y-68580000D02*
X99060000Y-68580000D01*
X83820000Y-93980000D02*
X86360000Y-93980000D01*
X99060000Y-88900000D02*
X91440000Y-88900000D01*
X91440000Y-88900000D02*
X88900000Y-91440000D01*
X43285242Y-66040000D02*
X48260000Y-66040000D01*
X68580000Y-106680000D02*
X83820000Y-106680000D01*
%TO.N,/A0*%
X48260000Y-73660000D02*
X43180000Y-73660000D01*
%TO.N,/A1*%
X48260000Y-76200000D02*
X43180000Y-76200000D01*
%TO.N,/A2*%
X48260000Y-78740000D02*
X43180000Y-78740000D01*
%TO.N,/A3*%
X48260000Y-81280000D02*
X43180000Y-81280000D01*
%TO.N,/A4*%
X48260000Y-83820000D02*
X43180000Y-83820000D01*
%TO.N,/A5*%
X48260000Y-86360000D02*
X43180000Y-86360000D01*
%TO.N,/SCK*%
X48260000Y-88900000D02*
X43180000Y-93980000D01*
X43180000Y-93980000D02*
X43180000Y-96520000D01*
%TO.N,/MOSI*%
X44355000Y-95345000D02*
X44355000Y-97885000D01*
X44355000Y-97885000D02*
X43180000Y-99060000D01*
X48260000Y-91440000D02*
X44355000Y-95345000D01*
%TO.N,/MISO*%
X48260000Y-93980000D02*
X45720000Y-96520000D01*
X45720000Y-101600000D02*
X43180000Y-101600000D01*
X45720000Y-96520000D02*
X45720000Y-101600000D01*
%TO.N,/IO16*%
X50800000Y-86360000D02*
X51925000Y-85235000D01*
X97935000Y-85235000D02*
X99060000Y-86360000D01*
X51925000Y-85235000D02*
X97935000Y-85235000D01*
%TO.N,/IO17*%
X78740000Y-109220000D02*
X50800000Y-109220000D01*
%TO.N,Net-(A1-IO21)*%
X48260000Y-111760000D02*
X48260000Y-101600000D01*
%TO.N,/SDA*%
X63500000Y-101600000D02*
X68580000Y-101600000D01*
%TO.N,/SCL*%
X63500000Y-99060000D02*
X68580000Y-99060000D01*
%TO.N,/IO14*%
X106680000Y-96520000D02*
X68580000Y-96520000D01*
X99060000Y-83820000D02*
X106680000Y-83820000D01*
%TO.N,/IO32*%
X81280000Y-93980000D02*
X68580000Y-93980000D01*
X83820000Y-91440000D02*
X81280000Y-93980000D01*
%TO.N,/A8*%
X44305000Y-87775000D02*
X64915000Y-87775000D01*
X43180000Y-88900000D02*
X44305000Y-87775000D01*
X64915000Y-87775000D02*
X68580000Y-91440000D01*
%TO.N,/IO33*%
X66040000Y-86360000D02*
X68580000Y-88900000D01*
X93980000Y-68580000D02*
X66040000Y-68580000D01*
X99060000Y-63500000D02*
X93980000Y-68580000D01*
%TO.N,/IO27*%
X76200000Y-86360000D02*
X68580000Y-86360000D01*
X96520000Y-83820000D02*
X76200000Y-83820000D01*
%TO.N,/IO12*%
X72417293Y-83820000D02*
X68580000Y-83820000D01*
X79113504Y-76200000D02*
X72429506Y-76199999D01*
X83820000Y-76200000D02*
X79113504Y-76200000D01*
X72429506Y-83807787D02*
X72417293Y-83820000D01*
%TO.N,/IO13*%
X73660000Y-81280000D02*
X68580000Y-81280000D01*
X81280000Y-73660000D02*
X73660000Y-73660000D01*
%TO.N,+5V*%
X53340000Y-106680000D02*
X60960000Y-106680000D01*
X73660000Y-99060000D02*
X86360000Y-99060000D01*
X76200000Y-58420000D02*
X71120000Y-63500000D01*
X63500000Y-104140000D02*
X76200000Y-104140000D01*
X60960000Y-106680000D02*
X63500000Y-104140000D01*
X71120000Y-78740000D02*
X76200000Y-78740000D01*
%TO.N,GNDPWR*%
X59289865Y-103270135D02*
X69971135Y-103270135D01*
X71823308Y-101600000D02*
X86360000Y-101600000D01*
X58420000Y-104140000D02*
X59289865Y-103270135D01*
X78740000Y-88900000D02*
X71744354Y-88900000D01*
X71744354Y-88900000D02*
X71695917Y-88851563D01*
X71732289Y-101508981D02*
X71823308Y-101600000D01*
X69971135Y-103270135D02*
X71732289Y-101508981D01*
%TO.N,Net-(U1-OUT1)*%
X83820000Y-81280000D02*
X81280000Y-78740000D01*
X99060000Y-91440000D02*
X93980000Y-91440000D01*
X93980000Y-81280000D02*
X83820000Y-81280000D01*
%TO.N,Net-(U1-OUT2)*%
X99060000Y-78740000D02*
X97127526Y-76807526D01*
X85752474Y-76807526D02*
X83820000Y-78740000D01*
X97127526Y-76807526D02*
X85752474Y-76807526D01*
%TO.N,Net-(J1--)*%
X92000000Y-104140000D02*
X86360000Y-104140000D01*
X95600000Y-107740000D02*
X92000000Y-104140000D01*
%TO.N,Net-(U3-OUT1)*%
X93980000Y-71120000D02*
X99060000Y-71120000D01*
X81280000Y-63500000D02*
X93980000Y-63500000D01*
%TO.N,Net-(U3-OUT2)*%
X99060000Y-58420000D02*
X96520000Y-55880000D01*
X86360000Y-55880000D02*
X83820000Y-58420000D01*
X96520000Y-55880000D02*
X86360000Y-55880000D01*
%TO.N,Net-(J1-+)*%
X95600000Y-100540000D02*
X92500000Y-100540000D01*
X92500000Y-100540000D02*
X91440000Y-101600000D01*
%TD*%
M02*
