%TF.GenerationSoftware,KiCad,Pcbnew,7.0.6-7.0.6~ubuntu22.04.1*%
%TF.CreationDate,2023-07-24T13:45:05-05:00*%
%TF.ProjectId,vango-pcb,76616e67-6f2d-4706-9362-2e6b69636164,rev?*%
%TF.SameCoordinates,Original*%
%TF.FileFunction,Soldermask,Bot*%
%TF.FilePolarity,Negative*%
%FSLAX46Y46*%
G04 Gerber Fmt 4.6, Leading zero omitted, Abs format (unit mm)*
G04 Created by KiCad (PCBNEW 7.0.6-7.0.6~ubuntu22.04.1) date 2023-07-24 13:45:05*
%MOMM*%
%LPD*%
G01*
G04 APERTURE LIST*
G04 Aperture macros list*
%AMRoundRect*
0 Rectangle with rounded corners*
0 $1 Rounding radius*
0 $2 $3 $4 $5 $6 $7 $8 $9 X,Y pos of 4 corners*
0 Add a 4 corners polygon primitive as box body*
4,1,4,$2,$3,$4,$5,$6,$7,$8,$9,$2,$3,0*
0 Add four circle primitives for the rounded corners*
1,1,$1+$1,$2,$3*
1,1,$1+$1,$4,$5*
1,1,$1+$1,$6,$7*
1,1,$1+$1,$8,$9*
0 Add four rect primitives between the rounded corners*
20,1,$1+$1,$2,$3,$4,$5,0*
20,1,$1+$1,$4,$5,$6,$7,0*
20,1,$1+$1,$6,$7,$8,$9,0*
20,1,$1+$1,$8,$9,$2,$3,0*%
G04 Aperture macros list end*
%ADD10C,1.524000*%
%ADD11R,1.524000X1.524000*%
%ADD12C,1.700000*%
%ADD13O,1.700000X1.700000*%
%ADD14C,1.600000*%
%ADD15R,1.600000X1.600000*%
%ADD16R,2.000000X0.900000*%
%ADD17RoundRect,1.025000X-1.025000X1.025000X-1.025000X-1.025000X1.025000X-1.025000X1.025000X1.025000X0*%
%ADD18C,4.100000*%
%ADD19R,1.300000X2.300000*%
%ADD20R,1.700000X1.700000*%
G04 APERTURE END LIST*
D10*
%TO.C,U2*%
X88800000Y-99060000D03*
X88800000Y-101600000D03*
X88800000Y-104140000D03*
X88800000Y-106680000D03*
X88800000Y-109220000D03*
%TD*%
%TO.C,U3*%
X76200000Y-71120000D03*
D11*
X78740000Y-71120000D03*
D10*
X81280000Y-71120000D03*
X83820000Y-71120000D03*
D11*
X86360000Y-71120000D03*
D10*
X88900000Y-71120000D03*
X91440000Y-71120000D03*
X76200000Y-58420000D03*
D11*
X78740000Y-58420000D03*
D10*
X81280000Y-58420000D03*
X83820000Y-58420000D03*
X86360000Y-58420000D03*
X88900000Y-58420000D03*
X91440000Y-58420000D03*
%TD*%
%TO.C,U5*%
X99060000Y-58420000D03*
D11*
X99060000Y-60960000D03*
D10*
X99060000Y-63500000D03*
X99060000Y-66040000D03*
X99060000Y-68580000D03*
X99060000Y-71120000D03*
%TD*%
%TO.C,U4*%
X99060000Y-78740000D03*
D11*
X99060000Y-81280000D03*
D10*
X99060000Y-83820000D03*
X99060000Y-86360000D03*
X99060000Y-88900000D03*
X99060000Y-91440000D03*
%TD*%
D12*
%TO.C,J5*%
X40640000Y-99060000D03*
D13*
X40640000Y-96520000D03*
X40640000Y-93980000D03*
%TD*%
D10*
%TO.C,U1*%
X76200000Y-91440000D03*
D11*
X78740000Y-91440000D03*
D10*
X81280000Y-91440000D03*
X83820000Y-91440000D03*
D11*
X86360000Y-91440000D03*
D10*
X88900000Y-91440000D03*
X91440000Y-91440000D03*
X76200000Y-78740000D03*
D11*
X78740000Y-78740000D03*
D10*
X81280000Y-78740000D03*
X83820000Y-78740000D03*
X86360000Y-78740000D03*
X88900000Y-78740000D03*
X91440000Y-78740000D03*
%TD*%
D14*
%TO.C,A1*%
X66040000Y-73660000D03*
X66040000Y-76200000D03*
X66040000Y-78740000D03*
X66040000Y-81280000D03*
X66040000Y-83820000D03*
X66040000Y-86360000D03*
X66040000Y-88900000D03*
X66040000Y-91440000D03*
X66040000Y-93980000D03*
X66040000Y-96520000D03*
X66040000Y-99060000D03*
X66040000Y-101600000D03*
X45720000Y-101600000D03*
X45720000Y-99060000D03*
X45720000Y-96520000D03*
X45720000Y-93980000D03*
X45720000Y-91440000D03*
X45720000Y-88900000D03*
X45720000Y-86360000D03*
X45720000Y-83820000D03*
X45720000Y-81280000D03*
X45720000Y-78740000D03*
X45720000Y-76200000D03*
X45720000Y-73660000D03*
D15*
X45720000Y-71120000D03*
D14*
X45720000Y-68580000D03*
X45720000Y-66040000D03*
X45720000Y-63500000D03*
%TD*%
D16*
%TO.C,J1*%
X102520000Y-97390000D03*
X102520000Y-110890000D03*
D17*
X96520000Y-100540000D03*
D18*
X96520000Y-107740000D03*
D19*
X100170000Y-104140000D03*
%TD*%
D12*
%TO.C,J2*%
X45720000Y-113550613D03*
D13*
X48260000Y-113550613D03*
D20*
X50800000Y-113550613D03*
D13*
X53340000Y-113550613D03*
%TD*%
D12*
%TO.C,3V3*%
X40650001Y-105557669D03*
D20*
X40650001Y-108097669D03*
%TD*%
%TO.C,J3*%
X65142934Y-113602966D03*
D13*
X62602934Y-113602966D03*
X60062934Y-113602966D03*
X57522934Y-113602966D03*
%TD*%
D12*
%TO.C,SW1*%
X94845827Y-115277438D03*
D13*
X97385827Y-115277438D03*
X99925827Y-115277438D03*
%TD*%
D12*
%TO.C,J6*%
X40640000Y-68580000D03*
D20*
X40640000Y-71120000D03*
%TD*%
%TO.C,J4*%
X40640000Y-76200000D03*
D13*
X40640000Y-78740000D03*
X40640000Y-81280000D03*
X40640000Y-83820000D03*
X40640000Y-86360000D03*
X40640000Y-88900000D03*
%TD*%
D20*
%TO.C,J7*%
X40640000Y-63500000D03*
D13*
X40640000Y-60960000D03*
%TD*%
D20*
%TO.C,Servo*%
X66040000Y-54608195D03*
D13*
X68580000Y-54608195D03*
X71120000Y-54608195D03*
%TD*%
M02*
