%TF.GenerationSoftware,KiCad,Pcbnew,7.0.6-7.0.6~ubuntu22.04.1*%
%TF.CreationDate,2023-07-24T13:45:05-05:00*%
%TF.ProjectId,vango-pcb,76616e67-6f2d-4706-9362-2e6b69636164,rev?*%
%TF.SameCoordinates,Original*%
%TF.FileFunction,Copper,L1,Top*%
%TF.FilePolarity,Positive*%
%FSLAX46Y46*%
G04 Gerber Fmt 4.6, Leading zero omitted, Abs format (unit mm)*
G04 Created by KiCad (PCBNEW 7.0.6-7.0.6~ubuntu22.04.1) date 2023-07-24 13:45:05*
%MOMM*%
%LPD*%
G01*
G04 APERTURE LIST*
G04 Aperture macros list*
%AMRoundRect*
0 Rectangle with rounded corners*
0 $1 Rounding radius*
0 $2 $3 $4 $5 $6 $7 $8 $9 X,Y pos of 4 corners*
0 Add a 4 corners polygon primitive as box body*
4,1,4,$2,$3,$4,$5,$6,$7,$8,$9,$2,$3,0*
0 Add four circle primitives for the rounded corners*
1,1,$1+$1,$2,$3*
1,1,$1+$1,$4,$5*
1,1,$1+$1,$6,$7*
1,1,$1+$1,$8,$9*
0 Add four rect primitives between the rounded corners*
20,1,$1+$1,$2,$3,$4,$5,0*
20,1,$1+$1,$4,$5,$6,$7,0*
20,1,$1+$1,$6,$7,$8,$9,0*
20,1,$1+$1,$8,$9,$2,$3,0*%
G04 Aperture macros list end*
%TA.AperFunction,ComponentPad*%
%ADD10C,1.524000*%
%TD*%
%TA.AperFunction,ComponentPad*%
%ADD11R,1.524000X1.524000*%
%TD*%
%TA.AperFunction,ComponentPad*%
%ADD12C,1.700000*%
%TD*%
%TA.AperFunction,ComponentPad*%
%ADD13O,1.700000X1.700000*%
%TD*%
%TA.AperFunction,ComponentPad*%
%ADD14C,1.600000*%
%TD*%
%TA.AperFunction,ComponentPad*%
%ADD15R,1.600000X1.600000*%
%TD*%
%TA.AperFunction,ComponentPad*%
%ADD16R,2.000000X0.900000*%
%TD*%
%TA.AperFunction,ComponentPad*%
%ADD17RoundRect,1.025000X-1.025000X1.025000X-1.025000X-1.025000X1.025000X-1.025000X1.025000X1.025000X0*%
%TD*%
%TA.AperFunction,ComponentPad*%
%ADD18C,4.100000*%
%TD*%
%TA.AperFunction,ComponentPad*%
%ADD19R,1.300000X2.300000*%
%TD*%
%TA.AperFunction,ComponentPad*%
%ADD20R,1.700000X1.700000*%
%TD*%
%TA.AperFunction,ViaPad*%
%ADD21C,0.800000*%
%TD*%
%TA.AperFunction,Conductor*%
%ADD22C,0.750000*%
%TD*%
%TA.AperFunction,Conductor*%
%ADD23C,0.250000*%
%TD*%
G04 APERTURE END LIST*
D10*
%TO.P,U2,5,VOUT*%
%TO.N,+5V*%
X88800000Y-99060000D03*
%TO.P,U2,4,GND*%
%TO.N,GND*%
X88800000Y-101600000D03*
%TO.P,U2,3,GND*%
X88800000Y-104140000D03*
%TO.P,U2,2,VIN*%
%TO.N,Net-(SW1-B)*%
X88800000Y-106680000D03*
%TO.P,U2,1,EN*%
%TO.N,unconnected-(U2-EN-Pad1)*%
X88800000Y-109220000D03*
%TD*%
%TO.P,U3,1,VM*%
%TO.N,unconnected-(U3-VM-Pad1)*%
X76200000Y-71120000D03*
D11*
%TO.P,U3,2,GND*%
%TO.N,GND*%
X78740000Y-71120000D03*
D10*
%TO.P,U3,3,EN/IN1*%
%TO.N,/IO13*%
X81280000Y-71120000D03*
%TO.P,U3,4,PH/IN2*%
%TO.N,/IO12*%
X83820000Y-71120000D03*
D11*
%TO.P,U3,5,PMODE*%
%TO.N,GND*%
X86360000Y-71120000D03*
D10*
%TO.P,U3,6,~{SLEEP}*%
%TO.N,+3V3*%
X88900000Y-71120000D03*
%TO.P,U3,7,VREF*%
%TO.N,unconnected-(U3-VREF-Pad7)*%
X91440000Y-71120000D03*
%TO.P,U3,8,VIN*%
%TO.N,+5V*%
X76200000Y-58420000D03*
D11*
%TO.P,U3,9,GND*%
%TO.N,GND*%
X78740000Y-58420000D03*
D10*
%TO.P,U3,10,OUT1*%
%TO.N,Net-(U3-OUT1)*%
X81280000Y-58420000D03*
%TO.P,U3,11,OUT2*%
%TO.N,Net-(U3-OUT2)*%
X83820000Y-58420000D03*
%TO.P,U3,12,IMODE*%
%TO.N,unconnected-(U3-IMODE-Pad12)*%
X86360000Y-58420000D03*
%TO.P,U3,13,~{FAULT}*%
%TO.N,unconnected-(U3-~{FAULT}-Pad13)*%
X88900000Y-58420000D03*
%TO.P,U3,14,CS*%
%TO.N,unconnected-(U3-CS-Pad14)*%
X91440000Y-58420000D03*
%TD*%
%TO.P,U5,1,M1*%
%TO.N,Net-(U3-OUT2)*%
X99060000Y-58420000D03*
D11*
%TO.P,U5,2,GND*%
%TO.N,GND*%
X99060000Y-60960000D03*
D10*
%TO.P,U5,3,C1*%
%TO.N,/IO33*%
X99060000Y-63500000D03*
%TO.P,U5,4,C2*%
%TO.N,/IO27*%
X99060000Y-66040000D03*
%TO.P,U5,5,VCC*%
%TO.N,+3V3*%
X99060000Y-68580000D03*
%TO.P,U5,6,M2*%
%TO.N,Net-(U3-OUT1)*%
X99060000Y-71120000D03*
%TD*%
%TO.P,U4,1,M1*%
%TO.N,Net-(U1-OUT2)*%
X99060000Y-78740000D03*
D11*
%TO.P,U4,2,GND*%
%TO.N,GND*%
X99060000Y-81280000D03*
D10*
%TO.P,U4,3,C1*%
%TO.N,/IO14*%
X99060000Y-83820000D03*
%TO.P,U4,4,C2*%
%TO.N,/IO16*%
X99060000Y-86360000D03*
%TO.P,U4,5,VCC*%
%TO.N,+3V3*%
X99060000Y-88900000D03*
%TO.P,U4,6,M2*%
%TO.N,Net-(U1-OUT1)*%
X99060000Y-91440000D03*
%TD*%
D12*
%TO.P,J5,1,Pin_1*%
%TO.N,/MISO*%
X40640000Y-99060000D03*
D13*
%TO.P,J5,2,Pin_2*%
%TO.N,/MOSI*%
X40640000Y-96520000D03*
%TO.P,J5,3,Pin_3*%
%TO.N,/SCK*%
X40640000Y-93980000D03*
%TD*%
D10*
%TO.P,U1,1,VM*%
%TO.N,unconnected-(U1-VM-Pad1)*%
X76200000Y-91440000D03*
D11*
%TO.P,U1,2,GND*%
%TO.N,GND*%
X78740000Y-91440000D03*
D10*
%TO.P,U1,3,EN/IN1*%
%TO.N,/IO17*%
X81280000Y-91440000D03*
%TO.P,U1,4,PH/IN2*%
%TO.N,/IO32*%
X83820000Y-91440000D03*
D11*
%TO.P,U1,5,PMODE*%
%TO.N,GND*%
X86360000Y-91440000D03*
D10*
%TO.P,U1,6,~{SLEEP}*%
%TO.N,+3V3*%
X88900000Y-91440000D03*
%TO.P,U1,7,VREF*%
%TO.N,unconnected-(U1-VREF-Pad7)*%
X91440000Y-91440000D03*
%TO.P,U1,8,VIN*%
%TO.N,+5V*%
X76200000Y-78740000D03*
D11*
%TO.P,U1,9,GND*%
%TO.N,GND*%
X78740000Y-78740000D03*
D10*
%TO.P,U1,10,OUT1*%
%TO.N,Net-(U1-OUT1)*%
X81280000Y-78740000D03*
%TO.P,U1,11,OUT2*%
%TO.N,Net-(U1-OUT2)*%
X83820000Y-78740000D03*
%TO.P,U1,12,IMODE*%
%TO.N,unconnected-(U1-IMODE-Pad12)*%
X86360000Y-78740000D03*
%TO.P,U1,13,~{FAULT}*%
%TO.N,unconnected-(U1-~{FAULT}-Pad13)*%
X88900000Y-78740000D03*
%TO.P,U1,14,CS*%
%TO.N,unconnected-(U1-CS-Pad14)*%
X91440000Y-78740000D03*
%TD*%
D14*
%TO.P,A1,28,VBAT*%
%TO.N,unconnected-(A1-VBAT-Pad28)*%
X66040000Y-73660000D03*
%TO.P,A1,27,EN*%
%TO.N,unconnected-(A1-EN-Pad27)*%
X66040000Y-76200000D03*
%TO.P,A1,26,USB*%
%TO.N,unconnected-(A1-USB-Pad26)*%
X66040000Y-78740000D03*
%TO.P,A1,25,A12/IO13*%
%TO.N,/IO13*%
X66040000Y-81280000D03*
%TO.P,A1,24,A11/IO12*%
%TO.N,/IO12*%
X66040000Y-83820000D03*
%TO.P,A1,23,A10/IO27*%
%TO.N,/IO27*%
X66040000Y-86360000D03*
%TO.P,A1,22,A9/IO33*%
%TO.N,/IO33*%
X66040000Y-88900000D03*
%TO.P,A1,21,A8/IO15*%
%TO.N,/A8*%
X66040000Y-91440000D03*
%TO.P,A1,20,A7/IO32*%
%TO.N,/IO32*%
X66040000Y-93980000D03*
%TO.P,A1,19,A6/IO14*%
%TO.N,/IO14*%
X66040000Y-96520000D03*
%TO.P,A1,18,SCL/IO22*%
%TO.N,/SCL*%
X66040000Y-99060000D03*
%TO.P,A1,17,SDA/IO23*%
%TO.N,/SDA*%
X66040000Y-101600000D03*
%TO.P,A1,16,IO21*%
%TO.N,Net-(A1-IO21)*%
X45720000Y-101600000D03*
%TO.P,A1,15,TX/IO17*%
%TO.N,/IO17*%
X45720000Y-99060000D03*
%TO.P,A1,14,RX/IO16*%
%TO.N,/IO16*%
X45720000Y-96520000D03*
%TO.P,A1,13,MISO/IO19*%
%TO.N,/MISO*%
X45720000Y-93980000D03*
%TO.P,A1,12,MOSI/IO18*%
%TO.N,/MOSI*%
X45720000Y-91440000D03*
%TO.P,A1,11,SCK/IO5*%
%TO.N,/SCK*%
X45720000Y-88900000D03*
%TO.P,A1,10,IO4/A5*%
%TO.N,/A5*%
X45720000Y-86360000D03*
%TO.P,A1,9,IO36/A4*%
%TO.N,/A4*%
X45720000Y-83820000D03*
%TO.P,A1,8,I39/A3*%
%TO.N,/A3*%
X45720000Y-81280000D03*
%TO.P,A1,7,I34/A2*%
%TO.N,/A2*%
X45720000Y-78740000D03*
%TO.P,A1,6,DAC1/A1*%
%TO.N,/A1*%
X45720000Y-76200000D03*
%TO.P,A1,5,DAC2/A0*%
%TO.N,/A0*%
X45720000Y-73660000D03*
D15*
%TO.P,A1,4,GND*%
%TO.N,GND*%
X45720000Y-71120000D03*
D14*
%TO.P,A1,3,NC*%
%TO.N,unconnected-(A1-NC-Pad3)*%
X45720000Y-68580000D03*
%TO.P,A1,2,3V3*%
%TO.N,+3V3*%
X45720000Y-66040000D03*
%TO.P,A1,1,~{RESET}*%
%TO.N,unconnected-(A1-~{RESET}-Pad1)*%
X45720000Y-63500000D03*
%TD*%
D16*
%TO.P,J1,*%
%TO.N,*%
X102520000Y-97390000D03*
X102520000Y-110890000D03*
D17*
%TO.P,J1,1,-*%
%TO.N,GND*%
X96520000Y-100540000D03*
D18*
%TO.P,J1,2,+*%
%TO.N,Net-(J1-+)*%
X96520000Y-107740000D03*
D19*
%TO.P,J1,3*%
%TO.N,N/C*%
X100170000Y-104140000D03*
%TD*%
D12*
%TO.P,J2,1,Pin_1*%
%TO.N,Net-(A1-IO21)*%
X45720000Y-113550613D03*
D13*
%TO.P,J2,2,Pin_2*%
%TO.N,+5V*%
X48260000Y-113550613D03*
D20*
%TO.P,J2,3,Pin_3*%
%TO.N,GND*%
X50800000Y-113550613D03*
D13*
%TO.P,J2,4,Pin_4*%
%TO.N,unconnected-(J2-Pin_4-Pad4)*%
X53340000Y-113550613D03*
%TD*%
D12*
%TO.P,3V3,1,Pin_1*%
%TO.N,+3V3*%
X40650001Y-105557669D03*
D20*
%TO.P,3V3,2,Pin_2*%
%TO.N,GND*%
X40650001Y-108097669D03*
%TD*%
%TO.P,J3,1,Pin_1*%
%TO.N,GND*%
X65142934Y-113602966D03*
D13*
%TO.P,J3,2,Pin_2*%
%TO.N,+3V3*%
X62602934Y-113602966D03*
%TO.P,J3,3,Pin_3*%
%TO.N,/SCL*%
X60062934Y-113602966D03*
%TO.P,J3,4,Pin_4*%
%TO.N,/SDA*%
X57522934Y-113602966D03*
%TD*%
D12*
%TO.P,SW1,1,A*%
%TO.N,unconnected-(SW1-A-Pad1)*%
X94845827Y-115277438D03*
D13*
%TO.P,SW1,2,B*%
%TO.N,Net-(SW1-B)*%
X97385827Y-115277438D03*
%TO.P,SW1,3,C*%
%TO.N,Net-(J1-+)*%
X99925827Y-115277438D03*
%TD*%
D12*
%TO.P,J6,1,Pin_1*%
%TO.N,+3V3*%
X40640000Y-68580000D03*
D20*
%TO.P,J6,2,Pin_2*%
%TO.N,GND*%
X40640000Y-71120000D03*
%TD*%
%TO.P,J4,1,Pin_1*%
%TO.N,/A0*%
X40640000Y-76200000D03*
D13*
%TO.P,J4,2,Pin_2*%
%TO.N,/A1*%
X40640000Y-78740000D03*
%TO.P,J4,3,Pin_3*%
%TO.N,/A2*%
X40640000Y-81280000D03*
%TO.P,J4,4,Pin_4*%
%TO.N,/A3*%
X40640000Y-83820000D03*
%TO.P,J4,5,Pin_5*%
%TO.N,/A4*%
X40640000Y-86360000D03*
%TO.P,J4,6,Pin_6*%
%TO.N,/A5*%
X40640000Y-88900000D03*
%TD*%
D20*
%TO.P,J7,1,Pin_1*%
%TO.N,GND*%
X40640000Y-63500000D03*
D13*
%TO.P,J7,2,Pin_2*%
%TO.N,+5V*%
X40640000Y-60960000D03*
%TD*%
D20*
%TO.P,Servo,1,Pin_1*%
%TO.N,GND*%
X66040000Y-54608195D03*
D13*
%TO.P,Servo,2,Pin_2*%
%TO.N,+5V*%
X68580000Y-54608195D03*
%TO.P,Servo,3,Pin_3*%
%TO.N,/A8*%
X71120000Y-54608195D03*
%TD*%
D21*
%TO.N,+3V3*%
X83820000Y-93980000D03*
X101600000Y-73660000D03*
X83820000Y-66040000D03*
X104140000Y-68580000D03*
X83820000Y-109220000D03*
X43180000Y-116840000D03*
X91440000Y-73660000D03*
%TO.N,/IO16*%
X50800000Y-96520000D03*
X50800000Y-86360000D03*
%TO.N,/IO17*%
X50800000Y-109220000D03*
X78740000Y-109220000D03*
%TO.N,/SDA*%
X63500000Y-101600000D03*
X63446101Y-110460695D03*
%TO.N,/SCL*%
X60960000Y-99060000D03*
%TO.N,/IO14*%
X106680000Y-96520000D03*
X106680000Y-83820000D03*
%TO.N,/IO33*%
X63500000Y-68580000D03*
%TO.N,/IO27*%
X96520000Y-83820000D03*
X76200000Y-83820000D03*
X76200000Y-86360000D03*
%TO.N,/IO12*%
X83820000Y-76200000D03*
X72429506Y-76199999D03*
X72429506Y-83807787D03*
%TO.N,/IO13*%
X73660000Y-73660000D03*
X73660000Y-81280000D03*
X81280000Y-73660000D03*
%TO.N,+5V*%
X71120000Y-99060000D03*
X71120000Y-78740000D03*
X48260000Y-106680000D03*
X71120000Y-106680000D03*
X71120000Y-60960000D03*
%TO.N,Net-(U3-OUT1)*%
X81280000Y-63500000D03*
X93980000Y-71120000D03*
X93980000Y-63500000D03*
%TD*%
D22*
%TO.N,+5V*%
X68580000Y-54608195D02*
X68580000Y-58420000D01*
X68580000Y-58420000D02*
X71120000Y-60960000D01*
X68580000Y-54608195D02*
X62228195Y-60960000D01*
X62228195Y-60960000D02*
X40640000Y-60960000D01*
D23*
%TO.N,/IO27*%
X66040000Y-86360000D02*
X76200000Y-86360000D01*
D22*
%TO.N,+5V*%
X88800000Y-99060000D02*
X71120000Y-99060000D01*
%TO.N,Net-(SW1-B)*%
X97385827Y-115277438D02*
X88800000Y-106691611D01*
X88800000Y-106691611D02*
X88800000Y-106680000D01*
D23*
%TO.N,+3V3*%
X83820000Y-109220000D02*
X76200000Y-116840000D01*
X86360000Y-93980000D02*
X88900000Y-91440000D01*
X65839968Y-116840000D02*
X62602934Y-113602966D01*
X91440000Y-73660000D02*
X101600000Y-73660000D01*
X104140000Y-68580000D02*
X99060000Y-68580000D01*
X83820000Y-66040000D02*
X45720000Y-66040000D01*
X43180000Y-116840000D02*
X59365900Y-116840000D01*
X40640000Y-68580000D02*
X43180000Y-66040000D01*
X83820000Y-93980000D02*
X86360000Y-93980000D01*
X99060000Y-88900000D02*
X91440000Y-88900000D01*
X59365900Y-116840000D02*
X62602934Y-113602966D01*
X43180000Y-66040000D02*
X45720000Y-66040000D01*
X91440000Y-88900000D02*
X88900000Y-91440000D01*
X76200000Y-116840000D02*
X65839968Y-116840000D01*
%TO.N,/A0*%
X40640000Y-76200000D02*
X43180000Y-76200000D01*
X43180000Y-76200000D02*
X45720000Y-73660000D01*
%TO.N,/A1*%
X40640000Y-78740000D02*
X43180000Y-78740000D01*
X43180000Y-78740000D02*
X45720000Y-76200000D01*
%TO.N,/A2*%
X40640000Y-81280000D02*
X43180000Y-81280000D01*
X43180000Y-81280000D02*
X45720000Y-78740000D01*
%TO.N,/A3*%
X40640000Y-83820000D02*
X43180000Y-83820000D01*
X43180000Y-83820000D02*
X45720000Y-81280000D01*
%TO.N,/A4*%
X40640000Y-86360000D02*
X43180000Y-86360000D01*
X43180000Y-86360000D02*
X45720000Y-83820000D01*
%TO.N,/A5*%
X40640000Y-88900000D02*
X43180000Y-88900000D01*
X43180000Y-88900000D02*
X45720000Y-86360000D01*
%TO.N,/SCK*%
X40640000Y-93980000D02*
X45720000Y-88900000D01*
%TO.N,/MOSI*%
X40640000Y-96520000D02*
X45720000Y-91440000D01*
%TO.N,/MISO*%
X40640000Y-99060000D02*
X45720000Y-93980000D01*
%TO.N,/IO16*%
X45720000Y-96520000D02*
X50800000Y-96520000D01*
X50800000Y-86360000D02*
X51925000Y-85235000D01*
X97935000Y-85235000D02*
X99060000Y-86360000D01*
X51925000Y-85235000D02*
X97935000Y-85235000D01*
%TO.N,/IO17*%
X78740000Y-109220000D02*
X50800000Y-109220000D01*
%TO.N,/SDA*%
X63446101Y-110460695D02*
X60665205Y-110460695D01*
X63500000Y-101600000D02*
X66040000Y-101600000D01*
X60665205Y-110460695D02*
X57522934Y-113602966D01*
%TO.N,/SCL*%
X60960000Y-99060000D02*
X66040000Y-99060000D01*
%TO.N,/IO14*%
X99060000Y-83820000D02*
X106680000Y-83820000D01*
X106680000Y-96520000D02*
X66040000Y-96520000D01*
%TO.N,/IO32*%
X83820000Y-91440000D02*
X81280000Y-93980000D01*
X81280000Y-93980000D02*
X66040000Y-93980000D01*
%TO.N,/IO33*%
X63500000Y-68580000D02*
X93980000Y-68580000D01*
X93980000Y-68580000D02*
X99060000Y-63500000D01*
%TO.N,/IO27*%
X96520000Y-83820000D02*
X76200000Y-83820000D01*
%TO.N,/IO12*%
X79113504Y-76200000D02*
X72429506Y-76199999D01*
X72417293Y-83820000D02*
X66040000Y-83820000D01*
X72429506Y-83807787D02*
X72417293Y-83820000D01*
X83820000Y-76200000D02*
X79113504Y-76200000D01*
%TO.N,/IO13*%
X73660000Y-81280000D02*
X66040000Y-81280000D01*
X81280000Y-73660000D02*
X73660000Y-73660000D01*
D22*
%TO.N,+5V*%
X71120000Y-60960000D02*
X73660000Y-60960000D01*
X71120000Y-106680000D02*
X48260000Y-106680000D01*
X73660000Y-60960000D02*
X76200000Y-58420000D01*
X71120000Y-78740000D02*
X76200000Y-78740000D01*
%TO.N,Net-(U1-OUT2)*%
X96520000Y-76200000D02*
X99060000Y-78740000D01*
X86360000Y-76200000D02*
X96520000Y-76200000D01*
X83820000Y-78740000D02*
X86360000Y-76200000D01*
%TO.N,Net-(U3-OUT1)*%
X81280000Y-63500000D02*
X93980000Y-63500000D01*
X93980000Y-71120000D02*
X99060000Y-71120000D01*
%TO.N,Net-(U3-OUT2)*%
X83820000Y-58420000D02*
X86360000Y-55880000D01*
X86360000Y-55880000D02*
X96520000Y-55880000D01*
X96520000Y-55880000D02*
X99060000Y-58420000D01*
%TD*%
M02*
